<svg xmlns="http://www.w3.org/2000/svg" viewBox="0 0 200 200" width="200" height="200">
  <defs>
    <path
      id="doodle-sparkle-a"
      d="M0,-12 L3,-4.2 L11,-3.6 L4.4,1.6 L7.2,9.8 L0,5.2 L-7.4,9.6 L-4.6,1.2 L-11.4,-4.2 L-2.8,-4.4 Z"
    />
    <path
      id="doodle-sparkle-b"
      d="M0,-9.5 L2.2,-3.4 L8.8,-2.8 L3.6,1.6 L5.8,7.6 L0,4 L-6,7.8 L-3.6,1.2 L-9.2,-3.2 L-2,-3.6 Z"
    />
    <path
      id="doodle-sparkle-c"
      d="M0,-10.5 L2.8,-3.8 L10.2,-3 L4,1.4 L6.6,8.4 L0,4.6 L-6.8,8.6 L-4.2,1 L-10.4,-3.8 L-2.6,-4 Z"
    />
  </defs>

  <g fill="none" stroke="#fff8dc" stroke-width="2.2" stroke-linecap="round" stroke-linejoin="round">
    <use href="#doodle-sparkle-a" transform="translate(30,36) scale(0.62) rotate(-10)" />
    <use href="#doodle-sparkle-b" transform="translate(120,18) scale(0.52) rotate(18)" />
    <use href="#doodle-sparkle-c" transform="translate(176,90) scale(0.68) rotate(-12)" />
    <use href="#doodle-sparkle-a" transform="translate(60,120) scale(0.48) rotate(14)" />
    <use href="#doodle-sparkle-b" transform="translate(150,158) scale(0.6) rotate(-16)" />
    <use href="#doodle-sparkle-c" transform="translate(20,176) scale(0.42) rotate(8)" />
  </g>
</svg>
