<svg xmlns="http://www.w3.org/2000/svg" viewBox="0 0 200 200" width="200" height="200">
  <defs>
    <path
      id="star-sparkle"
      d="M11.017 2.814a1 1 0 0 1 1.966 0l1.051 5.558a2 2 0 0 0 1.594 1.594l5.558 1.051a1 1 0 0 1 0 1.966l-5.558 1.051a2 2 0 0 0-1.594 1.594l-1.051 5.558a1 1 0 0 1-1.966 0l-1.051-5.558a2 2 0 0 0-1.594-1.594l-5.558-1.051a1 1 0 0 1 0-1.966l5.558-1.051a2 2 0 0 0 1.594-1.594z"
    />
  </defs>

  <g fill="#ffffff">
    <circle cx="14" cy="22" r="1.1" opacity="0.65" />
    <circle cx="38" cy="8" r="0.8" opacity="0.5" />
    <circle cx="62" cy="34" r="1.4" opacity="0.8" />
    <circle cx="88" cy="12" r="0.9" opacity="0.55" />
    <circle cx="112" cy="40" r="1.2" opacity="0.7" />
    <circle cx="146" cy="18" r="1" opacity="0.6" />
    <circle cx="172" cy="46" r="1.5" opacity="0.85" />
    <circle cx="192" cy="10" r="0.7" opacity="0.45" />
    <circle cx="8" cy="66" r="1.3" opacity="0.75" />
    <circle cx="46" cy="72" r="0.8" opacity="0.5" />
    <circle cx="78" cy="60" r="1.1" opacity="0.65" />
    <circle cx="104" cy="82" r="0.9" opacity="0.55" />
    <circle cx="134" cy="66" r="1.4" opacity="0.8" />
    <circle cx="164" cy="88" r="1" opacity="0.6" />
    <circle cx="24" cy="104" r="1.2" opacity="0.7" />
    <circle cx="56" cy="118" r="0.8" opacity="0.5" />
    <circle cx="92" cy="108" r="1.5" opacity="0.85" />
    <circle cx="120" cy="128" r="0.9" opacity="0.55" />
    <circle cx="150" cy="112" r="1.1" opacity="0.65" />
    <circle cx="184" cy="132" r="1.3" opacity="0.75" />
    <circle cx="10" cy="148" r="0.9" opacity="0.55" />
    <circle cx="40" cy="164" r="1.2" opacity="0.7" />
    <circle cx="70" cy="150" r="0.8" opacity="0.5" />
    <circle cx="100" cy="172" r="1.4" opacity="0.8" />
    <circle cx="128" cy="156" r="1" opacity="0.6" />
    <circle cx="158" cy="176" r="1.2" opacity="0.7" />
    <circle cx="188" cy="160" r="0.8" opacity="0.5" />
    <circle cx="20" cy="190" r="1.1" opacity="0.65" />
    <circle cx="60" cy="196" r="0.9" opacity="0.55" />
    <circle cx="110" cy="192" r="1.3" opacity="0.75" />
    <circle cx="150" cy="194" r="1" opacity="0.6" />
  </g>

  <g fill="#ffe9b0">
    <use href="#star-sparkle" transform="translate(24,50) scale(0.32)" opacity="0.85" />
    <use href="#star-sparkle" transform="translate(96,20) scale(0.26)" opacity="0.7" />
    <use href="#star-sparkle" transform="translate(158,64) scale(0.34)" opacity="0.8" />
    <use href="#star-sparkle" transform="translate(52,140) scale(0.28)" opacity="0.75" />
    <use href="#star-sparkle" transform="translate(134,158) scale(0.3)" opacity="0.85" />
    <use href="#star-sparkle" transform="translate(180,180) scale(0.24)" opacity="0.65" />
  </g>
</svg>
